<svg width="128" height="128" viewBox="0 0 128 128" fill="none" xmlns="http://www.w3.org/2000/svg">
<rect width="128" height="128" fill="#191E2B"/>
<path d="M92.7755 100.381C92.3673 100.381 91.551 100.381 91.1429 99.9733C89.102 99.157 87.8776 96.708 89.102 94.6672C98.898 71.4019 98.898 52.2182 89.102 32.6264C88.2857 30.5856 89.102 28.1366 90.7347 27.3202C92.7755 26.5039 95.2245 27.3202 96.0408 28.9529C106.653 50.1774 106.653 72.2182 96.0408 97.5243C96.0408 99.5651 94.4082 100.381 92.7755 100.381ZM35.6327 100.381C34 100.381 32.3673 99.5651 31.9592 97.9325C21.3469 72.6264 21.3469 50.5856 31.9592 29.3611C33.1837 27.3202 35.6327 26.5039 37.2653 27.3202C39.3061 28.5447 40.1225 30.9937 39.3061 32.6264C29.5102 51.81 29.5102 70.9937 39.3061 94.6672C40.1225 96.708 39.3061 99.157 37.2653 99.9733C36.8571 100.381 36.0408 100.381 35.6327 100.381ZM76.449 84.0549H72.3674C66.6531 84.0549 65.0204 79.5652 62.9796 74.259C58.898 79.5652 53.5918 84.0549 47.8776 84.0549C45.4286 84.0549 43.7959 82.4223 43.7959 79.9733C43.7959 77.5243 45.4286 75.8917 47.8776 75.8917C49.9184 75.8917 53.5918 73.8509 59.7143 65.2794C58.898 63.6468 58.4898 62.0141 58.0816 60.3815C57.2653 58.3407 56.449 56.2998 56.0408 55.4835H51.9592C49.5102 55.4835 47.8776 53.8509 47.8776 51.4019C47.8776 48.9529 49.5102 47.3203 51.9592 47.3203H56.0408C61.7551 47.3203 63.3878 51.4019 65.4286 57.1162C69.5102 51.81 74.8163 47.3203 80.5306 47.3203C82.9796 47.3203 84.6122 48.9529 84.6122 51.4019C84.6122 53.8509 82.9796 55.4835 80.5306 55.4835C78.4898 55.4835 74.8163 57.5243 68.6939 66.0958C69.5102 68.1366 69.9184 69.7692 70.3265 70.9937C71.1429 73.0345 71.551 75.0754 72.3674 75.8917H76.449C78.898 75.8917 80.5306 77.5243 80.5306 79.9733C80.5306 82.4223 78.898 84.0549 76.449 84.0549Z" fill="#46B82E"/>
</svg>
